<?xml version="1.0" encoding="utf-8"?>
<svg viewBox="0 0 1292 291" xmlns="http://www.w3.org/2000/svg" xmlns:xlink="http://www.w3.org/1999/xlink">
  <defs>
    <clipPath id="clip-path">
      <rect class="cls-1" x="88.86" y="111.87" width="1290.05" height="288.28"/>
    </clipPath>
    <clipPath id="clip-path-2">
      <path class="cls-1" d="M352,301.31,278.3,375a14.71,14.71,0,0,0,20.81,20.8l73.73-73.73A14.71,14.71,0,0,0,352,301.31"/>
    </clipPath>
    <linearGradient id="Unbenannter_Verlauf_5" x1="-305.15" y1="-378.29" x2="-304.15" y2="-378.29" gradientTransform="matrix(133.69, 0, 0, -133.69, 41055.8, -50226.56)" gradientUnits="userSpaceOnUse">
      <stop offset="0" stop-color="#eb5856"/>
      <stop offset="1" stop-color="#ffe080"/>
    </linearGradient>
    <clipPath id="clip-path-3">
      <path class="cls-1" d="M166.36,115.64,92.63,189.37a12.83,12.83,0,0,0-3.77,9v.2a12.88,12.88,0,0,0,22,9l73.73-73.72a12.88,12.88,0,0,0-18.21-18.21"/>
    </clipPath>
    <linearGradient id="Unbenannter_Verlauf_5-2" x1="-305.21" y1="-378.47" x2="-304.21" y2="-378.47" gradientTransform="matrix(130.02, 0, 0, -130.02, 39756.02, -49045.41)" xlink:href="#Unbenannter_Verlauf_5"/>
    <clipPath id="clip-path-4">
      <path class="cls-1" d="M248.67,124.21,101.21,271.67A14.71,14.71,0,1,0,122,292.48L269.47,145a14.71,14.71,0,0,0-20.8-20.81"/>
    </clipPath>
    <linearGradient id="Unbenannter_Verlauf_5-3" x1="-304.27" y1="-375.59" x2="-303.27" y2="-375.59" gradientTransform="matrix(237.96, 0, 0, -237.96, 72471.39, -89168.28)" xlink:href="#Unbenannter_Verlauf_5"/>
    <clipPath id="clip-path-5">
      <path class="cls-1" d="M342.15,217.7,194.69,365.16A14.71,14.71,0,0,0,215.5,386L363,238.51a14.71,14.71,0,1,0-20.81-20.81"/>
    </clipPath>
    <linearGradient id="Unbenannter_Verlauf_5-4" x1="-304.27" y1="-375.59" x2="-303.27" y2="-375.59" gradientTransform="matrix(237.96, 0, 0, -237.96, 72563.2, -89072.73)" xlink:href="#Unbenannter_Verlauf_5"/>
    <clipPath id="clip-path-6">
      <path class="cls-1" d="M357.09,122.71l-59.2,15.86c-5.54,1.48-6.75,6-2.7,10.07l8.67,8.66L128.19,333a18.39,18.39,0,1,0,26,26L329.87,183.31l8.66,8.67c4.06,4.05,8.59,2.84,10.07-2.7l15.87-59.2c1.24-4.65-.89-7.73-4.88-7.73a9.79,9.79,0,0,0-2.5.36"/>
    </clipPath>
    <linearGradient id="Unbenannter_Verlauf_5-5" x1="-303.95" y1="-374.6" x2="-302.95" y2="-374.6" gradientTransform="matrix(332.66, 0, 0, -332.66, 101190.22, -124370.84)" xlink:href="#Unbenannter_Verlauf_5"/>
    <clipPath id="clip-path-7">
      <rect class="cls-1" x="88.86" y="111.87" width="1290.05" height="288.28"/>
    </clipPath>
    <style>.cls-1{fill:none;}.cls-2{clip-path:url(#clip-path);}.cls-3{clip-path:url(#clip-path-2);}.cls-4{fill:url(#Unbenannter_Verlauf_5);}.cls-5{clip-path:url(#clip-path-3);}.cls-6{fill:url(#Unbenannter_Verlauf_5-2);}.cls-7{clip-path:url(#clip-path-4);}.cls-8{fill:url(#Unbenannter_Verlauf_5-3);}.cls-9{clip-path:url(#clip-path-5);}.cls-10{fill:url(#Unbenannter_Verlauf_5-4);}.cls-11{clip-path:url(#clip-path-6);}.cls-12{fill:url(#Unbenannter_Verlauf_5-5);}.cls-13{clip-path:url(#clip-path-7);}.cls-14{fill:#fff;}</style>
  </defs>
  <g id="Ebene_2" data-name="Ebene 2" transform="matrix(1, 0, 0, 1, -87.538803, -110.50663)">
    <g id="Ebene_1-2" data-name="Ebene 1">
      <g id="Remazing_Logo_Negative">
        <g class="cls-2">
          <g class="cls-3">
            <rect class="cls-4" x="251.61" y="274.62" width="147.91" height="147.91" transform="translate(-151.12 332.3) rotate(-45)"/>
          </g>
          <g class="cls-5">
            <rect class="cls-6" x="68.44" y="90.82" width="141.57" height="141.57" transform="translate(-73.5 145.78) rotate(-45)"/>
          </g>
          <g class="cls-7">
            <rect class="cls-8" x="59.25" y="82.26" width="252.18" height="252.18" transform="translate(-93.04 192.08) rotate(-45)"/>
          </g>
          <g class="cls-9">
            <rect class="cls-10" x="152.74" y="175.74" width="252.18" height="252.18" transform="translate(-131.76 285.56) rotate(-45)"/>
          </g>
          <g class="cls-11">
            <rect class="cls-12" x="71.28" y="71.28" width="344.16" height="344.16" transform="translate(-100.8 243.36) rotate(-45)"/>
          </g>
          <g class="cls-13">
            <path class="cls-14" d="M606.71,311.42H574.39l-42-48.17H506.24v48.17H479.06V167.1c22.86,0,45.71.21,68.56.21,34,.2,51.88,22.85,51.88,47.76,0,19.77-9,39.74-36.44,45.29l43.65,49.21ZM506.24,192.63v46.12h41.38c17.3,0,24.71-11.53,24.71-23.06s-7.62-23.06-24.71-23.06Z"/>
            <path class="cls-14" d="M633.26,269.63c1.64,12.56,12.56,21.62,30.26,21.62,9.27,0,21.41-3.5,27.18-9.47l16.06,15.85c-10.71,11.12-28.21,16.47-43.65,16.47-35,0-55.79-21.62-55.79-54.15,0-30.88,21-53.11,53.94-53.11,34,0,55.17,21,51.26,62.79Zm55.17-20.8c-1.64-13.17-11.94-19.76-26.35-19.76-13.59,0-24.7,6.59-28.41,19.76Z"/>
            <path class="cls-14" d="M793.22,311.42V257.07c0-13.38-7-25.53-20.79-25.53-13.59,0-21.62,12.15-21.62,25.53v54.35H725.69V209.72h10.77a14.51,14.51,0,0,1,14.35,12.35c5.35-10.29,17.09-14,26.76-14,12.15,0,24.3,4.94,30.06,18.94,9.06-14.41,20.8-18.53,34-18.53,28.83,0,43,17.71,43,48.18v54.76H859.52V256.66c0-13.38-5.57-24.71-19.15-24.71s-22,11.74-22,25.12v54.35Z"/>
            <path class="cls-14" d="M996.44,209.92h10.06v101.5H982.82l-1.23-14.82c-5.76,11.94-21.62,17.71-32.94,17.91-30.06.21-52.29-18.32-52.29-53.94,0-35,23.26-53.32,52.91-53.12,13.58,0,26.56,6.38,32.32,16.47a14.87,14.87,0,0,1,14.85-14m-75,50.65c0,20.52,15,32.25,33.12,30.75,36.54-3,36.48-58.4-.07-61.31-18-1.43-33,10.06-33,30.56"/>
            <polygon class="cls-14" points="1104.28 209.92 1104.28 221.86 1057.55 286.72 1104.69 286.72 1104.69 311.42 1019.25 311.42 1019.25 300.92 1067.84 232.78 1022.96 232.78 1022.96 209.92 1104.28 209.92"/>
            <rect class="cls-14" x="1119.72" y="209.51" width="25.12" height="101.91"/>
            <path class="cls-14" d="M1238.09,311.42V258.31c0-15.15-8.12-26.73-23.59-27.17-14.87-.41-26.85,12.25-26.85,27.12v53.16h-24.91V209.72h8.55a15.64,15.64,0,0,1,15.54,13.79c10.29-10.09,20.59-15.23,33.35-15.23,23.89,0,43,17.91,43,49.82v53.32Z"/>
            <path class="cls-14" d="M1373.36,209.44l5.55,4.19L1367.58,228c7.83,8.85,10.71,18.94,10.71,30.06,0,12.56-4.74,30.26-21.41,37.88,16.88,8.44,21,20.59,21,33.56,0,28-21.41,45.29-50.85,45.29s-51.47-17.91-51.47-45.29h24.91c0,13.18,12.14,21.82,26.56,21.82s25.73-7.82,25.73-21.82-13.27-20.43-25.88-20.38c-25.63.1-48-17.85-50.88-43.33-4-36.19,20.37-59.2,51-59.2,8,0,16.26,1,23.26,5.76a16.63,16.63,0,0,1,23.07-2.95m-72.89,48.66c0,17.7,11.94,28.2,26.56,28.2,14.41,0,26.35-10.7,26.35-28.2s-11.94-28.62-26.35-28.62c-14.62,0-26.56,10.91-26.56,28.62"/>
            <path class="cls-14" d="M1148.22,182c0-9.14-7.2-14.94-15.89-14.94s-16,5.7-16,14.94,7.19,14.72,16,14.72,15.89-5.59,15.89-14.72"/>
          </g>
        </g>
      </g>
    </g>
  </g>
</svg>